Normalized EMG Linear Envelopes
nRows=274
nColumns=4

endheader
time	 med_gas_r	  soleus_r	 tib_ant_r	
2.52823	  0.073697	  0.027984	  0.012206	
2.56149	  0.082875	  0.031686	  0.014056	
2.59476	  0.091042	  0.035112	  0.015749	
2.62802	  0.097149	  0.038023	  0.017186	
2.66129	  0.100820	  0.040236	  0.018266	
2.69456	  0.102453	  0.041706	  0.018928	
2.72782	  0.102901	  0.042573	  0.019183	
2.76109	  0.102859	  0.043112	  0.019134	
2.79435	  0.102422	  0.043604	  0.018950	
2.82762	  0.101186	  0.044224	  0.018806	
2.86089	  0.098763	  0.045033	  0.018834	
2.89415	  0.095243	  0.046027	  0.019094	
2.92742	  0.091195	  0.047198	  0.019557	
2.96069	  0.087298	  0.048508	  0.020107	
2.99395	  0.083970	  0.049857	  0.020579	
3.02722	  0.081298	  0.051062	  0.020842	
3.06048	  0.079209	  0.051925	  0.020851	
3.09375	  0.077656	  0.052321	  0.020640	
3.12702	  0.076649	  0.052278	  0.020267	
3.16028	  0.076178	  0.051968	  0.019787	
3.19355	  0.076165	  0.051628	  0.019267	
3.22681	  0.076499	  0.051452	  0.018804	
3.26008	  0.077108	  0.051535	  0.018494	
3.29335	  0.077950	  0.051860	  0.018387	
3.32661	  0.078924	  0.052322	  0.018466	
3.35988	  0.079775	  0.052764	  0.018672	
3.39315	  0.080150	  0.053008	  0.018944	
3.42641	  0.079787	  0.052905	  0.019242	
3.45968	  0.078708	  0.052361	  0.019543	
3.49294	  0.077228	  0.051368	  0.019823	
3.52621	  0.075785	  0.050040	  0.020045	
3.55948	  0.074713	  0.048607	  0.020164	
3.59274	  0.074158	  0.047352	  0.020131	
3.62601	  0.074106	  0.046475	  0.019903	
3.65927	  0.074455	  0.045991	  0.019452	
3.69254	  0.075049	  0.045739	  0.018799	
3.72581	  0.075687	  0.045517	  0.018044	
3.75907	  0.076156	  0.045251	  0.017364	
3.79234	  0.076278	  0.045082	  0.016962	
3.8256	  0.075966	  0.045322	  0.016989	
3.85887	  0.075286	  0.046284	  0.017485	
3.89214	  0.074470	  0.048092	  0.018359	
3.9254	  0.073877	  0.050539	  0.019412	
3.95867	  0.073860	  0.053112	  0.020387	
3.99194	  0.074598	  0.055187	  0.021049	
4.0252	  0.076000	  0.056308	  0.021275	
4.05847	  0.077737	  0.056371	  0.021104	
4.09173	  0.079381	  0.055606	  0.020719	
4.125	  0.080538	  0.054370	  0.020343	
4.15827	  0.080950	  0.052926	  0.020122	
4.19153	  0.080563	  0.051376	  0.020053	
4.2248	  0.079586	  0.049761	  0.020017	
4.25806	  0.078455	  0.048215	  0.019869	
4.29133	  0.077657	  0.047020	  0.019531	
4.3246	  0.077509	  0.046498	  0.019031	
4.35786	  0.078025	  0.046820	  0.018461	
4.39113	  0.078980	  0.047889	  0.017908	
4.4244	  0.080071	  0.049372	  0.017398	
4.45766	  0.081059	  0.050841	  0.016873	
4.49093	  0.081818	  0.051910	  0.016218	
4.52419	  0.082321	  0.052317	  0.015298	
4.55746	  0.082591	  0.051940	  0.014024	
4.59073	  0.082649	  0.050793	  0.012411	
4.62399	  0.082470	  0.049026	  0.010659	
4.65726	  0.082038	  0.046935	  0.009227	
4.69052	  0.081500	  0.044965	  0.008880	
4.72379	  0.081322	  0.043691	  0.010647	
4.75706	  0.082294	  0.043754	  0.015730	
4.79032	  0.085406	  0.045792	  0.025435	
4.82359	  0.091655	  0.050390	  0.041121	
4.85685	  0.101876	  0.058009	  0.063930	
4.89012	  0.116517	  0.068820	  0.094083	
4.92339	  0.135348	  0.082500	  0.130022	
4.95665	  0.157307	  0.098215	  0.168192	
4.98992	  0.180719	  0.114933	  0.204114	
5.02319	  0.203814	  0.131931	  0.234266	
5.05645	  0.225171	  0.149060	  0.257413	
5.08972	  0.243849	  0.166552	  0.274405	
5.12298	  0.259320	  0.184535	  0.286853	
5.15625	  0.271469	  0.202674	  0.296003	
5.18952	  0.280627	  0.220133	  0.302586	
5.22278	  0.287461	  0.235793	  0.307343	
5.25605	  0.292659	  0.248582	  0.311487	
5.28931	  0.296626	  0.257809	  0.316679	
5.32258	  0.299360	  0.263355	  0.324591	
5.35585	  0.300515	  0.265610	  0.336364	
5.38911	  0.299604	  0.265236	  0.352215	
5.42238	  0.296285	  0.262977	  0.371306	
5.45565	  0.290665	  0.259682	  0.391806	
5.48891	  0.283490	  0.256363	  0.411137	
5.52218	  0.276121	  0.254091	  0.426525	
5.55544	  0.270350	  0.253696	  0.435968	
5.58871	  0.268082	  0.255539	  0.439248	
5.62198	  0.270881	  0.259577	  0.438261	
5.65524	  0.279432	  0.265612	  0.436265	
5.68851	  0.293185	  0.273340	  0.436478	
5.72177	  0.310447	  0.282089	  0.440845	
5.75504	  0.328927	  0.290577	  0.449512	
5.78831	  0.346375	  0.297229	  0.461001	
5.82157	  0.361058	  0.301047	  0.472935	
5.85484	  0.372050	  0.302389	  0.483257	
5.8881	  0.379448	  0.302933	  0.491527	
5.92137	  0.384397	  0.304784	  0.499370	
5.95464	  0.388701	  0.309450	  0.509347	
5.9879	  0.394054	  0.317360	  0.522798	
6.02117	  0.401329	  0.328057	  0.538464	
6.05444	  0.410427	  0.340606	  0.553287	
6.0877	  0.420773	  0.353893	  0.564779	
6.12097	  0.432012	  0.366776	  0.572703	
6.15423	  0.444262	  0.378238	  0.578538	
6.1875	  0.457667	  0.387546	  0.583523	
6.22077	  0.471662	  0.394262	  0.587536	
6.25403	  0.484652	  0.398099	  0.589930	
6.2873	  0.494534	  0.398883	  0.591094	
6.32056	  0.499811	  0.396847	  0.592729	
6.35383	  0.500568	  0.393084	  0.596377	
6.3871	  0.498655	  0.389590	  0.601807	
6.42036	  0.496938	  0.388576	  0.607032	
6.45363	  0.498056	  0.391382	  0.610032	
6.4869	  0.503323	  0.397710	  0.610498	
6.52016	  0.512225	  0.405629	  0.610006	
6.55343	  0.522655	  0.412312	  0.610596	
6.58669	  0.531703	  0.415146	  0.613150	
6.61996	  0.536645	  0.412808	  0.616868	
6.65323	  0.535774	  0.405862	  0.619989	
6.68649	  0.528980	  0.396601	  0.621042	
6.71976	  0.518079	  0.388246	  0.619806	
6.75302	  0.506749	  0.383990	  0.617537	
6.78629	  0.499758	  0.386327	  0.616360	
6.81956	  0.501474	  0.396720	  0.618162	
6.85282	  0.514206	  0.415366	  0.623687	
6.88609	  0.537295	  0.441015	  0.632387	
6.91935	  0.567508	  0.471122	  0.642835	
6.95262	  0.600410	  0.502438	  0.653040	
6.98589	  0.631673	  0.531687	  0.660487	
7.01915	  0.657499	  0.555810	  0.662603	
7.05242	  0.674413	  0.571897	  0.658089	
7.08569	  0.679500	  0.577508	  0.648260	
7.11895	  0.671517	  0.571703	  0.636891	
7.15222	  0.652082	  0.555995	  0.628178	
7.18548	  0.625702	  0.534172	  0.624367	
7.21875	  0.598271	  0.510884	  0.625078	
7.25202	  0.574865	  0.489977	  0.628714	
7.28528	  0.558081	  0.473599	  0.634430	
7.31855	  0.547774	  0.462304	  0.642744	
7.35181	  0.542207	  0.455676	  0.654381	
7.38508	  0.539715	  0.452984	  0.668806	
7.41835	  0.539753	  0.453682	  0.684121	
7.45161	  0.542746	  0.457648	  0.698416	
7.48488	  0.549117	  0.464970	  0.710914	
7.51815	  0.558302	  0.475256	  0.721464	
7.55141	  0.568428	  0.486954	  0.729041	
7.58468	  0.576870	  0.497451	  0.731425	
7.61794	  0.581353	  0.504091	  0.726938	
7.65121	  0.580876	  0.505344	  0.716467	
7.68448	  0.575814	  0.501190	  0.703249	
7.71774	  0.567302	  0.492659	  0.690317	
7.75101	  0.556656	  0.481206	  0.678204	
7.78427	  0.545284	  0.468446	  0.665197	
7.81754	  0.534789	  0.456074	  0.649649	
7.85081	  0.526702	  0.445577	  0.631795	
7.88407	  0.521892	  0.437748	  0.613417	
7.91734	  0.520231	  0.432418	  0.596149	
7.9506	  0.520955	  0.428704	  0.580328	
7.98387	  0.523388	  0.425652	  0.565372	
8.01714	  0.527361	  0.422898	  0.551045	
8.0504	  0.533020	  0.420912	  0.538328	
8.08367	  0.540281	  0.420653	  0.529213	
8.11694	  0.548379	  0.422762	  0.525714	
8.1502	  0.555728	  0.426783	  0.528919	
8.18347	  0.560181	  0.431050	  0.538662	
8.21673	  0.559687	  0.433455	  0.553795	
8.25	  0.553161	  0.432586	  0.572609	
8.28327	  0.541038	  0.428339	  0.593152	
8.31653	  0.525112	  0.421592	  0.613567	
8.3498	  0.507841	  0.413502	  0.632525	
8.38306	  0.491650	  0.405197	  0.649479	
8.41633	  0.478557	  0.397988	  0.664362	
8.4496	  0.469996	  0.393434	  0.676939	
8.48286	  0.466625	  0.392833	  0.686467	
8.51613	  0.468170	  0.396504	  0.691994	
8.5494	  0.473501	  0.403504	  0.692928	
8.58266	  0.480905	  0.411942	  0.689257	
8.61593	  0.488353	  0.419529	  0.681230	
8.64919	  0.493657	  0.424031	  0.668886	
8.68246	  0.494691	  0.423648	  0.651935	
8.71573	  0.489888	  0.417432	  0.630310	
8.74899	  0.478828	  0.405567	  0.605131	
8.78226	  0.462492	  0.389270	  0.579262	
8.81552	  0.442924	  0.370284	  0.556707	
8.84879	  0.422484	  0.350317	  0.541056	
8.88206	  0.403187	  0.330746	  0.534115	
8.91532	  0.386463	  0.312633	  0.535663	
8.94859	  0.373252	  0.296810	  0.544157	
8.98185	  0.364166	  0.283975	  0.557482	
9.01512	  0.359527	  0.274833	  0.573162	
9.04839	  0.359371	  0.270264	  0.588242	
9.08165	  0.363516	  0.271226	  0.599411	
9.11492	  0.371700	  0.278256	  0.603748	
9.14819	  0.383688	  0.290917	  0.599909	
9.18145	  0.399225	  0.307703	  0.588922	
9.21472	  0.417678	  0.326493	  0.573745	
9.24798	  0.437493	  0.345081	  0.557634	
9.28125	  0.456008	  0.361404	  0.542483	
9.31452	  0.470211	  0.373601	  0.528435	
9.34778	  0.478202	  0.380330	  0.514909	
9.38105	  0.480211	  0.381359	  0.501999	
9.41431	  0.478208	  0.377968	  0.491055	
9.44758	  0.474450	  0.372708	  0.484153	
9.48085	  0.470292	  0.368524	  0.483069	
9.51411	  0.466187	  0.367640	  0.488495	
9.54738	  0.462414	  0.370684	  0.499760	
9.58065	  0.459400	  0.376368	  0.514891	
9.61391	  0.457195	  0.381977	  0.530954	
9.64718	  0.454837	  0.384566	  0.544770	
9.68044	  0.450518	  0.382284	  0.553912	
9.71371	  0.442555	  0.374909	  0.557394	
9.74698	  0.430290	  0.363277	  0.555477	
9.78024	  0.414223	  0.348265	  0.548709	
9.81351	  0.395419	  0.330255	  0.536967	
9.84677	  0.374778	  0.309318	  0.519240	
9.88004	  0.352647	  0.285654	  0.494160	
9.91331	  0.328890	  0.259803	  0.460781	
9.94657	  0.303250	  0.232561	  0.419096	
9.97984	  0.275734	  0.204821	  0.370188	
10.0131	  0.246883	  0.177526	  0.316261	
10.0464	  0.217876	  0.151753	  0.260701	
10.0796	  0.190438	  0.128778	  0.207967	
10.1129	  0.166510	  0.109961	  0.162923	
10.1462	  0.147729	  0.096433	  0.129595	
10.1794	  0.134896	  0.088738	  0.109805	
10.2127	  0.127684	  0.086627	  0.102407	
10.246	  0.124725	  0.089068	  0.103687	
10.2792	  0.124094	  0.094470	  0.108825	
10.3125	  0.123996	  0.101006	  0.113673	
10.3458	  0.123334	  0.106933	  0.115814	
10.379	  0.121854	  0.110830	  0.114490	
10.4123	  0.119870	  0.111744	  0.109912	
10.4456	  0.117862	  0.109329	  0.102695	
10.4788	  0.116230	  0.103938	  0.093679	
10.5121	  0.115217	  0.096535	  0.083839	
10.5454	  0.114868	  0.088369	  0.074064	
10.5786	  0.114998	  0.080551	  0.064964	
10.6119	  0.115283	  0.073803	  0.056912	
10.6452	  0.115502	  0.068446	  0.050264	
10.6784	  0.115768	  0.064545	  0.045447	
10.7117	  0.116501	  0.062024	  0.042807	
10.745	  0.118099	  0.060704	  0.042323	
10.7782	  0.120526	  0.060284	  0.043447	
10.8115	  0.123118	  0.060344	  0.045192	
10.8448	  0.124790	  0.060429	  0.046456	
10.878	  0.124561	  0.060173	  0.046443	
10.9113	  0.122073	  0.059414	  0.044947	
10.9446	  0.117764	  0.058218	  0.042345	
10.9778	  0.112590	  0.056800	  0.039304	
11.0111	  0.107506	  0.055400	  0.036418	
11.0444	  0.103066	  0.054186	  0.033993	
11.0776	  0.099389	  0.053236	  0.032052	
11.1109	  0.096414	  0.052582	  0.030470	
11.1442	  0.094138	  0.052250	  0.029128	
11.1774	  0.092620	  0.052243	  0.027974	
11.2107	  0.091814	  0.052502	  0.027010	
11.244	  0.091447	  0.052888	  0.026238	
11.2772	  0.091143	  0.053239	  0.025618	
11.3105	  0.090691	  0.053445	  0.025086	
11.3437	  0.090182	  0.053487	  0.024592	
11.377	  0.089840	  0.053388	  0.024118	
11.4103	  0.089684	  0.053126	  0.023646	
11.4435	  0.089338	  0.052561	  0.023113	
11.4768	  0.088199	  0.051440	  0.022395	
11.5101	  0.085807	  0.049498	  0.021358	
11.5433	  0.082113	  0.046607	  0.019933	
11.5766	  0.077445	  0.042893	  0.018168	
11.6099	  0.072302	  0.038736	  0.016228	
